STARTFONT 2.1
FONT -ADECW-Screen-Medium-R-Normal--14-140-75-75-M-70-DEC-DECCTRL
SIZE 14 75 75
FONTBOUNDINGBOX 7 14 0 -2

STARTPROPERTIES 26
FONTNAME_REGISTRY ""
FAMILY_NAME "Screen"
FOUNDRY "ADECW"
WEIGHT_NAME "Medium"
SLANT "R"
SETWIDTH_NAME "Normal"
ADD_STYLE_NAME ""
PIXEL_SIZE 14
POINT_SIZE 140
RESOLUTION_X 75
RESOLUTION_Y 75
SPACING "M"
AVERAGE_WIDTH 70
CHARSET_REGISTRY "DEC"
CHARSET_ENCODING "DECCTRL"
DEVICE_FONT_NAME "Screen-DEC-DECCTRL"
CHARSET_COLLECTIONS "DEC-DECCTRL"
FULL_NAME "Screen DEC-DECCTRL"
COPYRIGHT "Copyright (c) 1988 Digital Equipment Corporation Japan."
CAP_HEIGHT 10
X_HEIGHT 7
WEIGHT 10
QUAD_WIDTH 7
DEFAULT_CHAR 32
FONT_DESCENT 2
FONT_ASCENT 12
ENDPROPERTIES

CHARS 256

STARTCHAR C00
ENCODING 0
SWIDTH 500 0
DWIDTH 7 0
BBX 7 14 0 -2
BITMAP
00
88
C8
A8
98
88
00
24
24
24
24
18
00
00
ENDCHAR

STARTCHAR C01
ENCODING 1
SWIDTH 500 0
DWIDTH 7 0
BBX 7 14 0 -2
BITMAP
00
70
80
60
10
E0
00
24
24
3C
24
24
00
00
ENDCHAR

STARTCHAR C02
ENCODING 2
SWIDTH 500 0
DWIDTH 7 0
BBX 7 14 0 -2
BITMAP
00
70
80
60
10
E0
00
22
14
08
14
22
00
00
ENDCHAR

STARTCHAR C03
ENCODING 3
SWIDTH 500 0
DWIDTH 7 0
BBX 7 14 0 -2
BITMAP
00
F0
80
E0
80
F0
00
22
14
08
14
22
00
00
ENDCHAR

STARTCHAR C04
ENCODING 4
SWIDTH 500 0
DWIDTH 7 0
BBX 7 14 0 -2
BITMAP
00
F0
80
E0
80
F0
00
3E
08
08
08
08
00
00
ENDCHAR

STARTCHAR C05
ENCODING 5
SWIDTH 500 0
DWIDTH 7 0
BBX 7 14 0 -2
BITMAP
00
F0
80
E0
80
F0
00
18
24
24
2C
34
1A
00
ENDCHAR

STARTCHAR C06
ENCODING 6
SWIDTH 500 0
DWIDTH 7 0
BBX 7 14 0 -2
BITMAP
00
60
90
F0
90
90
00
24
28
30
28
24
00
00
ENDCHAR

STARTCHAR C07
ENCODING 7
SWIDTH 500 0
DWIDTH 7 0
BBX 7 14 0 -2
BITMAP
00
E0
90
E0
90
E0
00
20
20
20
20
3C
00
00
ENDCHAR

STARTCHAR C08
ENCODING 8
SWIDTH 500 0
DWIDTH 7 0
BBX 7 14 0 -2
BITMAP
00
E0
90
E0
90
E0
00
1C
20
18
04
38
00
00
ENDCHAR

STARTCHAR C09
ENCODING 9
SWIDTH 500 0
DWIDTH 7 0
BBX 7 14 0 -2
BITMAP
00
90
90
F0
90
90
00
3E
08
08
08
08
00
00
ENDCHAR

STARTCHAR C0a
ENCODING 10
SWIDTH 500 0
DWIDTH 7 0
BBX 7 14 0 -2
BITMAP
00
80
80
80
80
F0
00
3C
20
38
20
20
00
00
ENDCHAR

STARTCHAR C0b
ENCODING 11
SWIDTH 500 0
DWIDTH 7 0
BBX 7 14 0 -2
BITMAP
00
88
88
50
50
20
00
3E
08
08
08
08
00
00
ENDCHAR

STARTCHAR C0c
ENCODING 12
SWIDTH 500 0
DWIDTH 7 0
BBX 7 14 0 -2
BITMAP
00
F0
80
E0
80
80
00
3C
20
38
20
20
00
00
ENDCHAR

STARTCHAR C0d
ENCODING 13
SWIDTH 500 0
DWIDTH 7 0
BBX 7 14 0 -2
BITMAP
00
70
80
80
80
70
00
38
24
38
28
24
00
00
ENDCHAR

STARTCHAR C0e
ENCODING 14
SWIDTH 500 0
DWIDTH 7 0
BBX 7 14 0 -2
BITMAP
00
70
80
60
10
E0
00
18
24
24
24
18
00
00
ENDCHAR

STARTCHAR C0f
ENCODING 15
SWIDTH 500 0
DWIDTH 7 0
BBX 7 14 0 -2
BITMAP
00
70
80
60
10
E0
00
1C
08
08
08
1C
00
00
ENDCHAR

STARTCHAR C10
ENCODING 16
SWIDTH 500 0
DWIDTH 7 0
BBX 7 14 0 -2
BITMAP
00
E0
90
90
90
E0
00
20
20
20
20
3C
00
00
ENDCHAR

STARTCHAR C11
ENCODING 17
SWIDTH 500 0
DWIDTH 7 0
BBX 7 14 0 -2
BITMAP
00
E0
90
90
90
E0
00
08
18
08
08
1C
00
00
ENDCHAR

STARTCHAR C12
ENCODING 18
SWIDTH 500 0
DWIDTH 7 0
BBX 7 14 0 -2
BITMAP
00
E0
90
90
90
E0
00
18
24
08
10
3C
00
00
ENDCHAR

STARTCHAR C13
ENCODING 19
SWIDTH 500 0
DWIDTH 7 0
BBX 7 14 0 -2
BITMAP
00
E0
90
90
90
E0
00
18
24
08
24
18
00
00
ENDCHAR

STARTCHAR C14
ENCODING 20
SWIDTH 500 0
DWIDTH 7 0
BBX 7 14 0 -2
BITMAP
00
E0
90
90
90
E0
00
08
18
28
3C
08
00
00
ENDCHAR

STARTCHAR C15
ENCODING 21
SWIDTH 500 0
DWIDTH 7 0
BBX 7 14 0 -2
BITMAP
00
88
C8
A8
98
88
00
24
28
30
28
24
00
00
ENDCHAR

STARTCHAR C16
ENCODING 22
SWIDTH 500 0
DWIDTH 7 0
BBX 7 14 0 -2
BITMAP
00
70
80
60
10
E0
00
22
14
08
08
08
00
00
ENDCHAR

STARTCHAR C17
ENCODING 23
SWIDTH 500 0
DWIDTH 7 0
BBX 7 14 0 -2
BITMAP
00
F0
80
E0
80
F0
00
38
24
38
24
38
00
00
ENDCHAR

STARTCHAR C18
ENCODING 24
SWIDTH 500 0
DWIDTH 7 0
BBX 7 14 0 -2
BITMAP
00
70
80
80
80
70
00
44
64
54
4C
44
00
00
ENDCHAR

STARTCHAR C19
ENCODING 25
SWIDTH 500 0
DWIDTH 7 0
BBX 7 14 0 -2
BITMAP
00
F0
80
E0
80
F0
00
44
6C
54
44
44
00
00
ENDCHAR

STARTCHAR C1a
ENCODING 26
SWIDTH 500 0
DWIDTH 7 0
BBX 7 14 0 -2
BITMAP
00
00
38
44
44
44
20
10
10
00
10
10
00
00
ENDCHAR

STARTCHAR C1b
ENCODING 27
SWIDTH 500 0
DWIDTH 7 0
BBX 7 14 0 -2
BITMAP
00
F0
80
E0
80
F0
00
18
20
20
24
18
00
00
ENDCHAR

STARTCHAR C1c
ENCODING 28
SWIDTH 500 0
DWIDTH 7 0
BBX 7 14 0 -2
BITMAP
00
F0
80
E0
80
80
00
1C
20
18
04
38
00
00
ENDCHAR

STARTCHAR C1d
ENCODING 29
SWIDTH 500 0
DWIDTH 7 0
BBX 7 14 0 -2
BITMAP
00
60
80
B0
A0
60
00
1C
20
18
04
38
00
00
ENDCHAR

STARTCHAR C1e
ENCODING 30
SWIDTH 500 0
DWIDTH 7 0
BBX 7 14 0 -2
BITMAP
00
E0
90
E0
A0
90
00
1C
20
18
04
38
00
00
ENDCHAR

STARTCHAR C1f
ENCODING 31
SWIDTH 500 0
DWIDTH 7 0
BBX 7 14 0 -2
BITMAP
00
90
90
90
90
60
00
1C
20
18
04
38
00
00
ENDCHAR

STARTCHAR C20
ENCODING 32
SWIDTH 500 0
DWIDTH 7 0
BBX 7 14 0 -2
BITMAP
00
00
00
00
00
00
00
00
00
00
00
00
00
00
ENDCHAR

STARTCHAR C21
ENCODING 33
SWIDTH 500 0
DWIDTH 7 0
BBX 7 14 0 -2
BITMAP
00
00
10
10
10
10
10
10
10
00
10
10
00
00
ENDCHAR

STARTCHAR C22
ENCODING 34
SWIDTH 500 0
DWIDTH 7 0
BBX 7 14 0 -2
BITMAP
00
00
50
50
50
00
00
00
00
00
00
00
00
00
ENDCHAR

STARTCHAR C23
ENCODING 35
SWIDTH 500 0
DWIDTH 7 0
BBX 7 14 0 -2
BITMAP
00
00
48
48
48
FC
48
48
FC
48
48
48
00
00
ENDCHAR

STARTCHAR C24
ENCODING 36
SWIDTH 500 0
DWIDTH 7 0
BBX 7 14 0 -2
BITMAP
00
10
38
54
54
50
30
18
14
54
54
38
10
00
ENDCHAR

STARTCHAR C25
ENCODING 37
SWIDTH 500 0
DWIDTH 7 0
BBX 7 14 0 -2
BITMAP
00
00
44
A4
A8
48
10
20
48
54
94
88
00
00
ENDCHAR

STARTCHAR C26
ENCODING 38
SWIDTH 500 0
DWIDTH 7 0
BBX 7 14 0 -2
BITMAP
00
00
20
50
50
64
24
64
98
88
88
74
00
00
ENDCHAR

STARTCHAR C27
ENCODING 39
SWIDTH 500 0
DWIDTH 7 0
BBX 7 14 0 -2
BITMAP
00
00
20
20
40
00
00
00
00
00
00
00
00
00
ENDCHAR

STARTCHAR C28
ENCODING 40
SWIDTH 500 0
DWIDTH 7 0
BBX 7 14 0 -2
BITMAP
00
08
10
10
20
20
20
20
20
20
10
10
08
00
ENDCHAR

STARTCHAR C29
ENCODING 41
SWIDTH 500 0
DWIDTH 7 0
BBX 7 14 0 -2
BITMAP
00
40
20
20
10
10
10
10
10
10
20
20
40
00
ENDCHAR

STARTCHAR C2a
ENCODING 42
SWIDTH 500 0
DWIDTH 7 0
BBX 7 14 0 -2
BITMAP
00
00
00
00
10
54
38
10
38
54
10
00
00
00
ENDCHAR

STARTCHAR C2b
ENCODING 43
SWIDTH 500 0
DWIDTH 7 0
BBX 7 14 0 -2
BITMAP
00
00
00
10
10
10
10
7C
10
10
10
10
00
00
ENDCHAR

STARTCHAR C2c
ENCODING 44
SWIDTH 500 0
DWIDTH 7 0
BBX 7 14 0 -2
BITMAP
00
00
00
00
00
00
00
00
00
00
30
30
20
40
ENDCHAR

STARTCHAR C2d
ENCODING 45
SWIDTH 500 0
DWIDTH 7 0
BBX 7 14 0 -2
BITMAP
00
00
00
00
00
00
00
7C
00
00
00
00
00
00
ENDCHAR

STARTCHAR C2e
ENCODING 46
SWIDTH 500 0
DWIDTH 7 0
BBX 7 14 0 -2
BITMAP
00
00
00
00
00
00
00
00
00
00
30
30
00
00
ENDCHAR

STARTCHAR C2f
ENCODING 47
SWIDTH 500 0
DWIDTH 7 0
BBX 7 14 0 -2
BITMAP
00
00
04
04
08
08
10
20
40
40
80
80
00
00
ENDCHAR

STARTCHAR C30
ENCODING 48
SWIDTH 500 0
DWIDTH 7 0
BBX 7 14 0 -2
BITMAP
00
00
30
48
48
48
48
48
48
48
48
30
00
00
ENDCHAR

STARTCHAR C31
ENCODING 49
SWIDTH 500 0
DWIDTH 7 0
BBX 7 14 0 -2
BITMAP
00
00
30
50
10
10
10
10
10
10
10
7C
00
00
ENDCHAR

STARTCHAR C32
ENCODING 50
SWIDTH 500 0
DWIDTH 7 0
BBX 7 14 0 -2
BITMAP
00
00
30
48
48
08
08
10
10
20
40
78
00
00
ENDCHAR

STARTCHAR C33
ENCODING 51
SWIDTH 500 0
DWIDTH 7 0
BBX 7 14 0 -2
BITMAP
00
00
30
48
08
08
30
08
08
48
48
30
00
00
ENDCHAR

STARTCHAR C34
ENCODING 52
SWIDTH 500 0
DWIDTH 7 0
BBX 7 14 0 -2
BITMAP
00
00
08
08
18
28
28
48
48
7C
08
08
00
00
ENDCHAR

STARTCHAR C35
ENCODING 53
SWIDTH 500 0
DWIDTH 7 0
BBX 7 14 0 -2
BITMAP
00
00
78
40
40
70
48
08
08
48
48
30
00
00
ENDCHAR

STARTCHAR C36
ENCODING 54
SWIDTH 500 0
DWIDTH 7 0
BBX 7 14 0 -2
BITMAP
00
00
30
48
48
40
70
48
48
48
48
30
00
00
ENDCHAR

STARTCHAR C37
ENCODING 55
SWIDTH 500 0
DWIDTH 7 0
BBX 7 14 0 -2
BITMAP
00
00
7C
44
44
08
08
08
10
10
10
10
00
00
ENDCHAR

STARTCHAR C38
ENCODING 56
SWIDTH 500 0
DWIDTH 7 0
BBX 7 14 0 -2
BITMAP
00
00
30
48
48
48
30
48
48
48
48
30
00
00
ENDCHAR

STARTCHAR C39
ENCODING 57
SWIDTH 500 0
DWIDTH 7 0
BBX 7 14 0 -2
BITMAP
00
00
30
48
48
48
48
38
08
48
48
30
00
00
ENDCHAR

STARTCHAR C3a
ENCODING 58
SWIDTH 500 0
DWIDTH 7 0
BBX 7 14 0 -2
BITMAP
00
00
00
30
30
00
00
00
00
00
30
30
00
00
ENDCHAR

STARTCHAR C3b
ENCODING 59
SWIDTH 500 0
DWIDTH 7 0
BBX 7 14 0 -2
BITMAP
00
00
00
30
30
00
00
00
00
00
30
30
20
40
ENDCHAR

STARTCHAR C3c
ENCODING 60
SWIDTH 500 0
DWIDTH 7 0
BBX 7 14 0 -2
BITMAP
00
00
00
04
08
10
20
40
20
10
08
04
00
00
ENDCHAR

STARTCHAR C3d
ENCODING 61
SWIDTH 500 0
DWIDTH 7 0
BBX 7 14 0 -2
BITMAP
00
00
00
00
00
7C
00
00
00
7C
00
00
00
00
ENDCHAR

STARTCHAR C3e
ENCODING 62
SWIDTH 500 0
DWIDTH 7 0
BBX 7 14 0 -2
BITMAP
00
00
00
40
20
10
08
04
08
10
20
40
00
00
ENDCHAR

STARTCHAR C3f
ENCODING 63
SWIDTH 500 0
DWIDTH 7 0
BBX 7 14 0 -2
BITMAP
00
00
38
44
44
44
08
10
10
00
10
10
00
00
ENDCHAR

STARTCHAR C40
ENCODING 64
SWIDTH 500 0
DWIDTH 7 0
BBX 7 14 0 -2
BITMAP
00
00
30
48
94
AC
A4
A4
AC
94
40
30
00
00
ENDCHAR

STARTCHAR C41
ENCODING 65
SWIDTH 500 0
DWIDTH 7 0
BBX 7 14 0 -2
BITMAP
00
00
30
30
48
48
84
FC
84
84
84
84
00
00
ENDCHAR

STARTCHAR C42
ENCODING 66
SWIDTH 500 0
DWIDTH 7 0
BBX 7 14 0 -2
BITMAP
00
00
F8
84
84
88
F0
88
84
84
84
F8
00
00
ENDCHAR

STARTCHAR C43
ENCODING 67
SWIDTH 500 0
DWIDTH 7 0
BBX 7 14 0 -2
BITMAP
00
00
30
48
84
80
80
80
80
84
48
30
00
00
ENDCHAR

STARTCHAR C44
ENCODING 68
SWIDTH 500 0
DWIDTH 7 0
BBX 7 14 0 -2
BITMAP
00
00
F0
88
84
84
84
84
84
84
88
F0
00
00
ENDCHAR

STARTCHAR C45
ENCODING 69
SWIDTH 500 0
DWIDTH 7 0
BBX 7 14 0 -2
BITMAP
00
00
FC
80
80
80
F8
80
80
80
80
FC
00
00
ENDCHAR

STARTCHAR C46
ENCODING 70
SWIDTH 500 0
DWIDTH 7 0
BBX 7 14 0 -2
BITMAP
00
00
FC
80
80
80
F8
80
80
80
80
80
00
00
ENDCHAR

STARTCHAR C47
ENCODING 71
SWIDTH 500 0
DWIDTH 7 0
BBX 7 14 0 -2
BITMAP
00
00
30
48
84
80
80
9C
84
84
48
30
00
00
ENDCHAR

STARTCHAR C48
ENCODING 72
SWIDTH 500 0
DWIDTH 7 0
BBX 7 14 0 -2
BITMAP
00
00
84
84
84
84
FC
84
84
84
84
84
00
00
ENDCHAR

STARTCHAR C49
ENCODING 73
SWIDTH 500 0
DWIDTH 7 0
BBX 7 14 0 -2
BITMAP
00
00
38
10
10
10
10
10
10
10
10
38
00
00
ENDCHAR

STARTCHAR C4a
ENCODING 74
SWIDTH 500 0
DWIDTH 7 0
BBX 7 14 0 -2
BITMAP
00
00
3C
08
08
08
08
08
08
48
48
30
00
00
ENDCHAR

STARTCHAR C4b
ENCODING 75
SWIDTH 500 0
DWIDTH 7 0
BBX 7 14 0 -2
BITMAP
00
00
84
88
90
A0
D0
90
88
88
84
84
00
00
ENDCHAR

STARTCHAR C4c
ENCODING 76
SWIDTH 500 0
DWIDTH 7 0
BBX 7 14 0 -2
BITMAP
00
00
80
80
80
80
80
80
80
80
80
FC
00
00
ENDCHAR

STARTCHAR C4d
ENCODING 77
SWIDTH 500 0
DWIDTH 7 0
BBX 7 14 0 -2
BITMAP
00
00
84
84
CC
CC
B4
B4
84
84
84
84
00
00
ENDCHAR

STARTCHAR C4e
ENCODING 78
SWIDTH 500 0
DWIDTH 7 0
BBX 7 14 0 -2
BITMAP
00
00
84
C4
C4
A4
A4
94
94
8C
8C
84
00
00
ENDCHAR

STARTCHAR C4f
ENCODING 79
SWIDTH 500 0
DWIDTH 7 0
BBX 7 14 0 -2
BITMAP
00
00
30
48
84
84
84
84
84
84
48
30
00
00
ENDCHAR

STARTCHAR C50
ENCODING 80
SWIDTH 500 0
DWIDTH 7 0
BBX 7 14 0 -2
BITMAP
00
00
F0
88
84
84
88
F0
80
80
80
80
00
00
ENDCHAR

STARTCHAR C51
ENCODING 81
SWIDTH 500 0
DWIDTH 7 0
BBX 7 14 0 -2
BITMAP
00
00
30
48
84
84
84
84
84
94
48
38
04
00
ENDCHAR

STARTCHAR C52
ENCODING 82
SWIDTH 500 0
DWIDTH 7 0
BBX 7 14 0 -2
BITMAP
00
00
F0
88
84
84
88
F0
88
88
84
84
00
00
ENDCHAR

STARTCHAR C53
ENCODING 83
SWIDTH 500 0
DWIDTH 7 0
BBX 7 14 0 -2
BITMAP
00
00
78
84
84
80
70
08
04
84
84
78
00
00
ENDCHAR

STARTCHAR C54
ENCODING 84
SWIDTH 500 0
DWIDTH 7 0
BBX 7 14 0 -2
BITMAP
00
00
7C
10
10
10
10
10
10
10
10
10
00
00
ENDCHAR

STARTCHAR C55
ENCODING 85
SWIDTH 500 0
DWIDTH 7 0
BBX 7 14 0 -2
BITMAP
00
00
84
84
84
84
84
84
84
84
48
30
00
00
ENDCHAR

STARTCHAR C56
ENCODING 86
SWIDTH 500 0
DWIDTH 7 0
BBX 7 14 0 -2
BITMAP
00
00
84
84
84
84
48
48
48
48
30
30
00
00
ENDCHAR

STARTCHAR C57
ENCODING 87
SWIDTH 500 0
DWIDTH 7 0
BBX 7 14 0 -2
BITMAP
00
00
84
84
84
84
84
B4
B4
48
48
48
00
00
ENDCHAR

STARTCHAR C58
ENCODING 88
SWIDTH 500 0
DWIDTH 7 0
BBX 7 14 0 -2
BITMAP
00
00
84
84
48
48
30
30
48
48
84
84
00
00
ENDCHAR

STARTCHAR C59
ENCODING 89
SWIDTH 500 0
DWIDTH 7 0
BBX 7 14 0 -2
BITMAP
00
00
44
44
28
28
10
10
10
10
10
10
00
00
ENDCHAR

STARTCHAR C5a
ENCODING 90
SWIDTH 500 0
DWIDTH 7 0
BBX 7 14 0 -2
BITMAP
00
00
FC
04
08
10
10
20
20
40
80
FC
00
00
ENDCHAR

STARTCHAR C5b
ENCODING 91
SWIDTH 500 0
DWIDTH 7 0
BBX 7 14 0 -2
BITMAP
00
1C
10
10
10
10
10
10
10
10
10
10
1C
00
ENDCHAR

STARTCHAR C5c
ENCODING 92
SWIDTH 500 0
DWIDTH 7 0
BBX 7 14 0 -2
BITMAP
00
00
80
80
40
40
20
10
08
08
04
04
00
00
ENDCHAR

STARTCHAR C5d
ENCODING 93
SWIDTH 500 0
DWIDTH 7 0
BBX 7 14 0 -2
BITMAP
00
70
10
10
10
10
10
10
10
10
10
10
70
00
ENDCHAR

STARTCHAR C5e
ENCODING 94
SWIDTH 500 0
DWIDTH 7 0
BBX 7 14 0 -2
BITMAP
00
00
10
28
44
00
00
00
00
00
00
00
00
00
ENDCHAR

STARTCHAR C5f
ENCODING 95
SWIDTH 500 0
DWIDTH 7 0
BBX 7 14 0 -2
BITMAP
00
00
00
00
00
00
00
00
00
00
00
00
FC
00
ENDCHAR

STARTCHAR C60
ENCODING 96
SWIDTH 500 0
DWIDTH 7 0
BBX 7 14 0 -2
BITMAP
00
00
40
40
20
00
00
00
00
00
00
00
00
00
ENDCHAR

STARTCHAR C61
ENCODING 97
SWIDTH 500 0
DWIDTH 7 0
BBX 7 14 0 -2
BITMAP
00
00
00
00
00
38
44
04
3C
44
4C
34
00
00
ENDCHAR

STARTCHAR C62
ENCODING 98
SWIDTH 500 0
DWIDTH 7 0
BBX 7 14 0 -2
BITMAP
00
00
40
40
40
58
64
44
44
44
64
58
00
00
ENDCHAR

STARTCHAR C63
ENCODING 99
SWIDTH 500 0
DWIDTH 7 0
BBX 7 14 0 -2
BITMAP
00
00
00
00
00
38
44
40
40
40
44
38
00
00
ENDCHAR

STARTCHAR C64
ENCODING 100
SWIDTH 500 0
DWIDTH 7 0
BBX 7 14 0 -2
BITMAP
00
00
04
04
04
34
4C
44
44
44
4C
34
00
00
ENDCHAR

STARTCHAR C65
ENCODING 101
SWIDTH 500 0
DWIDTH 7 0
BBX 7 14 0 -2
BITMAP
00
00
00
00
00
38
44
44
7C
40
40
38
00
00
ENDCHAR

STARTCHAR C66
ENCODING 102
SWIDTH 500 0
DWIDTH 7 0
BBX 7 14 0 -2
BITMAP
00
00
0C
10
10
10
7C
10
10
10
10
10
00
00
ENDCHAR

STARTCHAR C67
ENCODING 103
SWIDTH 500 0
DWIDTH 7 0
BBX 7 14 0 -2
BITMAP
00
00
00
00
00
34
48
58
20
78
84
84
78
00
ENDCHAR

STARTCHAR C68
ENCODING 104
SWIDTH 500 0
DWIDTH 7 0
BBX 7 14 0 -2
BITMAP
00
00
40
40
40
58
64
44
44
44
44
44
00
00
ENDCHAR

STARTCHAR C69
ENCODING 105
SWIDTH 500 0
DWIDTH 7 0
BBX 7 14 0 -2
BITMAP
00
00
10
10
00
00
10
10
10
10
10
10
00
00
ENDCHAR

STARTCHAR C6a
ENCODING 106
SWIDTH 500 0
DWIDTH 7 0
BBX 7 14 0 -2
BITMAP
00
00
08
08
00
00
08
08
08
08
48
48
30
00
ENDCHAR

STARTCHAR C6b
ENCODING 107
SWIDTH 500 0
DWIDTH 7 0
BBX 7 14 0 -2
BITMAP
00
00
40
40
40
44
48
50
60
50
48
44
00
00
ENDCHAR

STARTCHAR C6c
ENCODING 108
SWIDTH 500 0
DWIDTH 7 0
BBX 7 14 0 -2
BITMAP
00
00
30
10
10
10
10
10
10
10
10
10
00
00
ENDCHAR

STARTCHAR C6d
ENCODING 109
SWIDTH 500 0
DWIDTH 7 0
BBX 7 14 0 -2
BITMAP
00
00
00
00
00
28
54
54
54
54
54
54
00
00
ENDCHAR

STARTCHAR C6e
ENCODING 110
SWIDTH 500 0
DWIDTH 7 0
BBX 7 14 0 -2
BITMAP
00
00
00
00
00
58
64
44
44
44
44
44
00
00
ENDCHAR

STARTCHAR C6f
ENCODING 111
SWIDTH 500 0
DWIDTH 7 0
BBX 7 14 0 -2
BITMAP
00
00
00
00
00
38
44
44
44
44
44
38
00
00
ENDCHAR

STARTCHAR C70
ENCODING 112
SWIDTH 500 0
DWIDTH 7 0
BBX 7 14 0 -2
BITMAP
00
00
00
00
00
58
64
44
44
64
58
40
40
00
ENDCHAR

STARTCHAR C71
ENCODING 113
SWIDTH 500 0
DWIDTH 7 0
BBX 7 14 0 -2
BITMAP
00
00
00
00
00
34
4C
44
44
4C
34
04
04
00
ENDCHAR

STARTCHAR C72
ENCODING 114
SWIDTH 500 0
DWIDTH 7 0
BBX 7 14 0 -2
BITMAP
00
00
00
00
00
4C
54
60
40
40
40
40
00
00
ENDCHAR

STARTCHAR C73
ENCODING 115
SWIDTH 500 0
DWIDTH 7 0
BBX 7 14 0 -2
BITMAP
00
00
00
00
00
38
44
40
38
04
44
38
00
00
ENDCHAR

STARTCHAR C74
ENCODING 116
SWIDTH 500 0
DWIDTH 7 0
BBX 7 14 0 -2
BITMAP
00
00
00
20
20
78
20
20
20
20
28
10
00
00
ENDCHAR

STARTCHAR C75
ENCODING 117
SWIDTH 500 0
DWIDTH 7 0
BBX 7 14 0 -2
BITMAP
00
00
00
00
00
44
44
44
44
44
4C
34
00
00
ENDCHAR

STARTCHAR C76
ENCODING 118
SWIDTH 500 0
DWIDTH 7 0
BBX 7 14 0 -2
BITMAP
00
00
00
00
00
44
44
44
28
28
10
10
00
00
ENDCHAR

STARTCHAR C77
ENCODING 119
SWIDTH 500 0
DWIDTH 7 0
BBX 7 14 0 -2
BITMAP
00
00
00
00
00
44
54
54
54
54
54
28
00
00
ENDCHAR

STARTCHAR C78
ENCODING 120
SWIDTH 500 0
DWIDTH 7 0
BBX 7 14 0 -2
BITMAP
00
00
00
00
00
44
28
28
10
28
28
44
00
00
ENDCHAR

STARTCHAR C79
ENCODING 121
SWIDTH 500 0
DWIDTH 7 0
BBX 7 14 0 -2
BITMAP
00
00
00
00
00
44
44
44
44
3C
04
44
38
00
ENDCHAR

STARTCHAR C7a
ENCODING 122
SWIDTH 500 0
DWIDTH 7 0
BBX 7 14 0 -2
BITMAP
00
00
00
00
00
7C
04
08
10
20
40
7C
00
00
ENDCHAR

STARTCHAR C7b
ENCODING 123
SWIDTH 500 0
DWIDTH 7 0
BBX 7 14 0 -2
BITMAP
00
08
10
20
20
20
10
60
10
20
20
20
10
08
ENDCHAR

STARTCHAR C7c
ENCODING 124
SWIDTH 500 0
DWIDTH 7 0
BBX 7 14 0 -2
BITMAP
00
00
10
10
10
10
00
00
00
10
10
10
10
00
ENDCHAR

STARTCHAR C7d
ENCODING 125
SWIDTH 500 0
DWIDTH 7 0
BBX 7 14 0 -2
BITMAP
00
40
20
10
10
10
20
18
20
10
10
10
20
40
ENDCHAR

STARTCHAR C7e
ENCODING 126
SWIDTH 500 0
DWIDTH 7 0
BBX 7 14 0 -2
BITMAP
00
64
98
00
00
00
00
00
00
00
00
00
00
00
ENDCHAR

STARTCHAR C7f
ENCODING 127
SWIDTH 500 0
DWIDTH 7 0
BBX 7 14 0 -2
BITMAP
00
E0
90
90
90
E0
00
3E
08
08
08
08
00
00
ENDCHAR

STARTCHAR C80
ENCODING 128
SWIDTH 500 0
DWIDTH 7 0
BBX 7 14 0 -2
BITMAP
00
60
90
60
90
60
00
08
14
14
14
08
00
00
ENDCHAR

STARTCHAR C81
ENCODING 129
SWIDTH 500 0
DWIDTH 7 0
BBX 7 14 0 -2
BITMAP
00
60
90
60
90
60
00
08
18
08
08
1C
00
00
ENDCHAR

STARTCHAR C82
ENCODING 130
SWIDTH 500 0
DWIDTH 7 0
BBX 7 14 0 -2
BITMAP
00
60
90
60
90
60
00
18
24
08
10
3C
00
00
ENDCHAR

STARTCHAR C83
ENCODING 131
SWIDTH 500 0
DWIDTH 7 0
BBX 7 14 0 -2
BITMAP
00
60
90
60
90
60
00
18
24
08
24
18
00
00
ENDCHAR

STARTCHAR C84
ENCODING 132
SWIDTH 500 0
DWIDTH 7 0
BBX 7 14 0 -2
BITMAP
00
60
90
60
90
60
00
08
18
28
3C
08
00
00
ENDCHAR

STARTCHAR C85
ENCODING 133
SWIDTH 500 0
DWIDTH 7 0
BBX 7 14 0 -2
BITMAP
00
60
90
60
90
60
00
3C
20
38
04
38
00
00
ENDCHAR

STARTCHAR C86
ENCODING 134
SWIDTH 500 0
DWIDTH 7 0
BBX 7 14 0 -2
BITMAP
00
60
90
60
90
60
00
18
20
38
24
18
00
00
ENDCHAR

STARTCHAR C87
ENCODING 135
SWIDTH 500 0
DWIDTH 7 0
BBX 7 14 0 -2
BITMAP
00
60
90
60
90
60
00
3C
24
08
08
10
00
00
ENDCHAR

STARTCHAR C88
ENCODING 136
SWIDTH 500 0
DWIDTH 7 0
BBX 7 14 0 -2
BITMAP
00
60
90
60
90
60
00
18
24
18
24
18
00
00
ENDCHAR

STARTCHAR C89
ENCODING 137
SWIDTH 500 0
DWIDTH 7 0
BBX 7 14 0 -2
BITMAP
00
60
90
60
90
60
00
18
24
1C
04
18
00
00
ENDCHAR

STARTCHAR C8a
ENCODING 138
SWIDTH 500 0
DWIDTH 7 0
BBX 7 14 0 -2
BITMAP
00
60
90
60
90
60
00
18
24
3C
24
24
00
00
ENDCHAR

STARTCHAR C8b
ENCODING 139
SWIDTH 500 0
DWIDTH 7 0
BBX 7 14 0 -2
BITMAP
00
60
90
60
90
60
00
38
24
38
24
38
00
00
ENDCHAR

STARTCHAR C8c
ENCODING 140
SWIDTH 500 0
DWIDTH 7 0
BBX 7 14 0 -2
BITMAP
00
60
90
60
90
60
00
1C
20
20
20
1C
00
00
ENDCHAR

STARTCHAR C8d
ENCODING 141
SWIDTH 500 0
DWIDTH 7 0
BBX 7 14 0 -2
BITMAP
00
60
90
60
90
60
00
38
24
24
24
38
00
00
ENDCHAR

STARTCHAR C8e
ENCODING 142
SWIDTH 500 0
DWIDTH 7 0
BBX 7 14 0 -2
BITMAP
00
60
90
60
90
60
00
3C
20
38
20
3C
00
00
ENDCHAR

STARTCHAR C8f
ENCODING 143
SWIDTH 500 0
DWIDTH 7 0
BBX 7 14 0 -2
BITMAP
00
60
90
60
90
60
00
3C
20
38
20
20
00
00
ENDCHAR

STARTCHAR C90
ENCODING 144
SWIDTH 500 0
DWIDTH 7 0
BBX 7 14 0 -2
BITMAP
00
60
90
70
10
60
00
08
14
14
14
08
00
00
ENDCHAR

STARTCHAR C91
ENCODING 145
SWIDTH 500 0
DWIDTH 7 0
BBX 7 14 0 -2
BITMAP
00
60
90
70
10
60
00
08
18
08
08
1C
00
00
ENDCHAR

STARTCHAR C92
ENCODING 146
SWIDTH 500 0
DWIDTH 7 0
BBX 7 14 0 -2
BITMAP
00
60
90
70
10
60
00
18
24
08
10
3C
00
00
ENDCHAR

STARTCHAR C93
ENCODING 147
SWIDTH 500 0
DWIDTH 7 0
BBX 7 14 0 -2
BITMAP
00
60
90
70
10
60
00
18
24
08
24
18
00
00
ENDCHAR

STARTCHAR C94
ENCODING 148
SWIDTH 500 0
DWIDTH 7 0
BBX 7 14 0 -2
BITMAP
00
60
90
70
10
60
00
08
18
28
3C
08
00
00
ENDCHAR

STARTCHAR C95
ENCODING 149
SWIDTH 500 0
DWIDTH 7 0
BBX 7 14 0 -2
BITMAP
00
60
90
70
10
60
00
3C
20
38
04
38
00
00
ENDCHAR

STARTCHAR C96
ENCODING 150
SWIDTH 500 0
DWIDTH 7 0
BBX 7 14 0 -2
BITMAP
00
60
90
70
10
60
00
18
20
38
24
18
00
00
ENDCHAR

STARTCHAR C97
ENCODING 151
SWIDTH 500 0
DWIDTH 7 0
BBX 7 14 0 -2
BITMAP
00
60
90
70
10
60
00
3C
24
08
08
10
00
00
ENDCHAR

STARTCHAR C98
ENCODING 152
SWIDTH 500 0
DWIDTH 7 0
BBX 7 14 0 -2
BITMAP
00
60
90
70
10
60
00
18
24
18
24
18
00
00
ENDCHAR

STARTCHAR C99
ENCODING 153
SWIDTH 500 0
DWIDTH 7 0
BBX 7 14 0 -2
BITMAP
00
60
90
70
10
60
00
18
24
1C
04
18
00
00
ENDCHAR

STARTCHAR C9a
ENCODING 154
SWIDTH 500 0
DWIDTH 7 0
BBX 7 14 0 -2
BITMAP
00
60
90
70
10
60
00
18
24
3C
24
24
00
00
ENDCHAR

STARTCHAR C9b
ENCODING 155
SWIDTH 500 0
DWIDTH 7 0
BBX 7 14 0 -2
BITMAP
00
60
90
70
10
60
00
38
24
38
24
38
00
00
ENDCHAR

STARTCHAR C9c
ENCODING 156
SWIDTH 500 0
DWIDTH 7 0
BBX 7 14 0 -2
BITMAP
00
60
90
70
10
60
00
1C
20
20
20
1C
00
00
ENDCHAR

STARTCHAR C9d
ENCODING 157
SWIDTH 500 0
DWIDTH 7 0
BBX 7 14 0 -2
BITMAP
00
60
90
70
10
60
00
38
24
24
24
38
00
00
ENDCHAR

STARTCHAR C9e
ENCODING 158
SWIDTH 500 0
DWIDTH 7 0
BBX 7 14 0 -2
BITMAP
00
60
90
70
10
60
00
3C
20
38
20
3C
00
00
ENDCHAR

STARTCHAR C9f
ENCODING 159
SWIDTH 500 0
DWIDTH 7 0
BBX 7 14 0 -2
BITMAP
00
60
90
70
10
60
00
3C
20
38
20
20
00
00
ENDCHAR

STARTCHAR Ca0
ENCODING 160
SWIDTH 500 0
DWIDTH 7 0
BBX 7 14 0 -2
BITMAP
00
60
90
F0
90
90
00
08
14
14
14
08
00
00
ENDCHAR

STARTCHAR Ca1
ENCODING 161
SWIDTH 500 0
DWIDTH 7 0
BBX 7 14 0 -2
BITMAP
00
00
10
10
00
10
10
10
10
10
10
10
00
00
ENDCHAR

STARTCHAR Ca2
ENCODING 162
SWIDTH 500 0
DWIDTH 7 0
BBX 7 14 0 -2
BITMAP
00
00
10
10
38
44
40
40
40
44
38
10
10
00
ENDCHAR

STARTCHAR Ca3
ENCODING 163
SWIDTH 500 0
DWIDTH 7 0
BBX 7 14 0 -2
BITMAP
00
00
10
28
28
20
20
F0
20
20
74
C8
00
00
ENDCHAR

STARTCHAR Ca4
ENCODING 164
SWIDTH 500 0
DWIDTH 7 0
BBX 7 14 0 -2
BITMAP
00
00
00
00
CC
30
48
48
30
CC
00
00
00
00
ENDCHAR

STARTCHAR Ca5
ENCODING 165
SWIDTH 500 0
DWIDTH 7 0
BBX 7 14 0 -2
BITMAP
00
00
44
44
28
7C
10
10
7C
10
10
10
00
00
ENDCHAR

STARTCHAR Ca6
ENCODING 166
SWIDTH 500 0
DWIDTH 7 0
BBX 7 14 0 -2
BITMAP
00
00
10
10
10
10
00
00
10
10
10
10
00
00
ENDCHAR

STARTCHAR Ca7
ENCODING 167
SWIDTH 500 0
DWIDTH 7 0
BBX 7 14 0 -2
BITMAP
00
00
38
44
40
38
44
44
38
04
44
38
00
00
ENDCHAR

STARTCHAR Ca8
ENCODING 168
SWIDTH 500 0
DWIDTH 7 0
BBX 7 14 0 -2
BITMAP
00
00
28
28
00
00
00
00
00
00
00
00
00
00
ENDCHAR

STARTCHAR Ca9
ENCODING 169
SWIDTH 500 0
DWIDTH 7 0
BBX 7 14 0 -2
BITMAP
00
00
00
78
84
B4
A4
A4
B4
84
78
00
00
00
ENDCHAR

STARTCHAR Caa
ENCODING 170
SWIDTH 500 0
DWIDTH 7 0
BBX 7 14 0 -2
BITMAP
00
30
08
38
48
34
00
7C
00
00
00
00
00
00
ENDCHAR

STARTCHAR Cab
ENCODING 171
SWIDTH 500 0
DWIDTH 7 0
BBX 7 14 0 -2
BITMAP
00
00
00
00
00
14
28
50
28
14
00
00
00
00
ENDCHAR

STARTCHAR Cac
ENCODING 172
SWIDTH 500 0
DWIDTH 7 0
BBX 7 14 0 -2
BITMAP
00
00
00
00
00
00
FC
04
04
00
00
00
00
00
ENDCHAR

STARTCHAR Cad
ENCODING 173
SWIDTH 500 0
DWIDTH 7 0
BBX 7 14 0 -2
BITMAP
00
00
00
00
00
00
7C
00
00
00
00
00
00
00
ENDCHAR

STARTCHAR Cae
ENCODING 174
SWIDTH 500 0
DWIDTH 7 0
BBX 7 14 0 -2
BITMAP
00
00
30
48
B4
AC
B4
B4
AC
84
48
30
00
00
ENDCHAR

STARTCHAR Caf
ENCODING 175
SWIDTH 500 0
DWIDTH 7 0
BBX 7 14 0 -2
BITMAP
00
7C
00
00
00
00
00
00
00
00
00
00
00
00
ENDCHAR

STARTCHAR Cb0
ENCODING 176
SWIDTH 500 0
DWIDTH 7 0
BBX 7 14 0 -2
BITMAP
00
30
48
48
30
00
00
00
00
00
00
00
00
00
ENDCHAR

STARTCHAR Cb1
ENCODING 177
SWIDTH 500 0
DWIDTH 7 0
BBX 7 14 0 -2
BITMAP
00
00
00
00
10
10
7C
10
10
00
7C
00
00
00
ENDCHAR

STARTCHAR Cb2
ENCODING 178
SWIDTH 500 0
DWIDTH 7 0
BBX 7 14 0 -2
BITMAP
00
30
48
10
20
78
00
00
00
00
00
00
00
00
ENDCHAR

STARTCHAR Cb3
ENCODING 179
SWIDTH 500 0
DWIDTH 7 0
BBX 7 14 0 -2
BITMAP
00
30
48
10
48
30
00
00
00
00
00
00
00
00
ENDCHAR

STARTCHAR Cb4
ENCODING 180
SWIDTH 500 0
DWIDTH 7 0
BBX 7 14 0 -2
BITMAP
00
00
30
40
00
00
00
00
00
00
00
00
00
00
ENDCHAR

STARTCHAR Cb5
ENCODING 181
SWIDTH 500 0
DWIDTH 7 0
BBX 7 14 0 -2
BITMAP
00
00
00
00
00
14
24
28
48
50
AC
80
00
00
ENDCHAR

STARTCHAR Cb6
ENCODING 182
SWIDTH 500 0
DWIDTH 7 0
BBX 7 14 0 -2
BITMAP
00
00
7C
E8
E8
E8
68
28
28
28
28
28
00
00
ENDCHAR

STARTCHAR Cb7
ENCODING 183
SWIDTH 500 0
DWIDTH 7 0
BBX 7 14 0 -2
BITMAP
00
00
00
00
00
30
30
00
00
00
00
00
00
00
ENDCHAR

STARTCHAR Cb8
ENCODING 184
SWIDTH 500 0
DWIDTH 7 0
BBX 7 14 0 -2
BITMAP
00
00
00
00
00
00
00
00
00
00
00
18
20
00
ENDCHAR

STARTCHAR Cb9
ENCODING 185
SWIDTH 500 0
DWIDTH 7 0
BBX 7 14 0 -2
BITMAP
00
20
60
20
20
70
00
00
00
00
00
00
00
00
ENDCHAR

STARTCHAR Cba
ENCODING 186
SWIDTH 500 0
DWIDTH 7 0
BBX 7 14 0 -2
BITMAP
00
30
48
48
48
30
00
78
00
00
00
00
00
00
ENDCHAR

STARTCHAR Cbb
ENCODING 187
SWIDTH 500 0
DWIDTH 7 0
BBX 7 14 0 -2
BITMAP
00
00
00
00
00
A0
50
28
50
A0
00
00
00
00
ENDCHAR

STARTCHAR Cbc
ENCODING 188
SWIDTH 500 0
DWIDTH 7 0
BBX 7 14 0 -2
BITMAP
00
40
C0
40
44
E8
10
28
58
A8
3C
08
00
00
ENDCHAR

STARTCHAR Cbd
ENCODING 189
SWIDTH 500 0
DWIDTH 7 0
BBX 7 14 0 -2
BITMAP
00
40
C0
40
44
E8
10
2C
54
84
08
1C
00
00
ENDCHAR

STARTCHAR Cbe
ENCODING 190
SWIDTH 500 0
DWIDTH 7 0
BBX 7 14 0 -2
BITMAP
00
60
10
60
14
68
10
28
58
A8
3C
08
00
00
ENDCHAR

STARTCHAR Cbf
ENCODING 191
SWIDTH 500 0
DWIDTH 7 0
BBX 7 14 0 -2
BITMAP
00
00
10
10
00
10
10
20
44
44
44
38
00
00
ENDCHAR

STARTCHAR Cc0
ENCODING 192
SWIDTH 500 0
DWIDTH 7 0
BBX 7 14 0 -2
BITMAP
00
30
08
00
10
28
44
44
7C
44
44
44
00
00
ENDCHAR

STARTCHAR Cc1
ENCODING 193
SWIDTH 500 0
DWIDTH 7 0
BBX 7 14 0 -2
BITMAP
00
18
20
00
10
28
44
44
7C
44
44
44
00
00
ENDCHAR

STARTCHAR Cc2
ENCODING 194
SWIDTH 500 0
DWIDTH 7 0
BBX 7 14 0 -2
BITMAP
00
10
28
00
10
28
44
44
7C
44
44
44
00
00
ENDCHAR

STARTCHAR Cc3
ENCODING 195
SWIDTH 500 0
DWIDTH 7 0
BBX 7 14 0 -2
BITMAP
00
34
48
00
10
28
44
44
7C
44
44
44
00
00
ENDCHAR

STARTCHAR Cc4
ENCODING 196
SWIDTH 500 0
DWIDTH 7 0
BBX 7 14 0 -2
BITMAP
00
28
28
00
10
28
44
44
7C
44
44
44
00
00
ENDCHAR

STARTCHAR Cc5
ENCODING 197
SWIDTH 500 0
DWIDTH 7 0
BBX 7 14 0 -2
BITMAP
00
10
10
00
10
28
44
44
7C
44
44
44
00
00
ENDCHAR

STARTCHAR Cc6
ENCODING 198
SWIDTH 500 0
DWIDTH 7 0
BBX 7 14 0 -2
BITMAP
00
00
2C
50
90
90
9C
F0
90
90
90
9C
00
00
ENDCHAR

STARTCHAR Cc7
ENCODING 199
SWIDTH 500 0
DWIDTH 7 0
BBX 7 14 0 -2
BITMAP
00
00
30
48
84
80
80
80
84
48
30
08
30
00
ENDCHAR

STARTCHAR Cc8
ENCODING 200
SWIDTH 500 0
DWIDTH 7 0
BBX 7 14 0 -2
BITMAP
00
30
08
00
7C
40
40
78
40
40
40
7C
00
00
ENDCHAR

STARTCHAR Cc9
ENCODING 201
SWIDTH 500 0
DWIDTH 7 0
BBX 7 14 0 -2
BITMAP
00
18
20
00
7C
40
40
78
40
40
40
7C
00
00
ENDCHAR

STARTCHAR Cca
ENCODING 202
SWIDTH 500 0
DWIDTH 7 0
BBX 7 14 0 -2
BITMAP
00
10
28
00
7C
40
40
78
40
40
40
7C
00
00
ENDCHAR

STARTCHAR Ccb
ENCODING 203
SWIDTH 500 0
DWIDTH 7 0
BBX 7 14 0 -2
BITMAP
00
28
28
00
7C
40
40
78
40
40
40
7C
00
00
ENDCHAR

STARTCHAR Ccc
ENCODING 204
SWIDTH 500 0
DWIDTH 7 0
BBX 7 14 0 -2
BITMAP
00
30
08
00
38
10
10
10
10
10
10
38
00
00
ENDCHAR

STARTCHAR Ccd
ENCODING 205
SWIDTH 500 0
DWIDTH 7 0
BBX 7 14 0 -2
BITMAP
00
18
20
00
38
10
10
10
10
10
10
38
00
00
ENDCHAR

STARTCHAR Cce
ENCODING 206
SWIDTH 500 0
DWIDTH 7 0
BBX 7 14 0 -2
BITMAP
00
10
28
00
38
10
10
10
10
10
10
38
00
00
ENDCHAR

STARTCHAR Ccf
ENCODING 207
SWIDTH 500 0
DWIDTH 7 0
BBX 7 14 0 -2
BITMAP
00
28
28
00
38
10
10
10
10
10
10
38
00
00
ENDCHAR

STARTCHAR Cd0
ENCODING 208
SWIDTH 500 0
DWIDTH 7 0
BBX 7 14 0 -2
BITMAP
00
00
70
28
24
24
74
24
24
24
28
70
00
00
ENDCHAR

STARTCHAR Cd1
ENCODING 209
SWIDTH 500 0
DWIDTH 7 0
BBX 7 14 0 -2
BITMAP
00
34
48
00
44
64
64
54
54
4C
4C
44
00
00
ENDCHAR

STARTCHAR Cd2
ENCODING 210
SWIDTH 500 0
DWIDTH 7 0
BBX 7 14 0 -2
BITMAP
00
30
08
00
38
44
44
44
44
44
44
38
00
00
ENDCHAR

STARTCHAR Cd3
ENCODING 211
SWIDTH 500 0
DWIDTH 7 0
BBX 7 14 0 -2
BITMAP
00
18
20
00
38
44
44
44
44
44
44
38
00
00
ENDCHAR

STARTCHAR Cd4
ENCODING 212
SWIDTH 500 0
DWIDTH 7 0
BBX 7 14 0 -2
BITMAP
00
10
28
00
38
44
44
44
44
44
44
38
00
00
ENDCHAR

STARTCHAR Cd5
ENCODING 213
SWIDTH 500 0
DWIDTH 7 0
BBX 7 14 0 -2
BITMAP
00
34
48
00
38
44
44
44
44
44
44
38
00
00
ENDCHAR

STARTCHAR Cd6
ENCODING 214
SWIDTH 500 0
DWIDTH 7 0
BBX 7 14 0 -2
BITMAP
00
28
28
00
38
44
44
44
44
44
44
38
00
00
ENDCHAR

STARTCHAR Cd7
ENCODING 215
SWIDTH 500 0
DWIDTH 7 0
BBX 7 14 0 -2
BITMAP
00
00
00
00
44
28
10
10
28
44
00
00
00
00
ENDCHAR

STARTCHAR Cd8
ENCODING 216
SWIDTH 500 0
DWIDTH 7 0
BBX 7 14 0 -2
BITMAP
00
00
00
04
3C
44
4C
54
54
64
44
78
40
00
ENDCHAR

STARTCHAR Cd9
ENCODING 217
SWIDTH 500 0
DWIDTH 7 0
BBX 7 14 0 -2
BITMAP
00
30
08
00
44
44
44
44
44
44
44
38
00
00
ENDCHAR

STARTCHAR Cda
ENCODING 218
SWIDTH 500 0
DWIDTH 7 0
BBX 7 14 0 -2
BITMAP
00
18
20
00
44
44
44
44
44
44
44
38
00
00
ENDCHAR

STARTCHAR Cdb
ENCODING 219
SWIDTH 500 0
DWIDTH 7 0
BBX 7 14 0 -2
BITMAP
00
10
28
00
44
44
44
44
44
44
44
38
00
00
ENDCHAR

STARTCHAR Cdc
ENCODING 220
SWIDTH 500 0
DWIDTH 7 0
BBX 7 14 0 -2
BITMAP
00
28
28
00
44
44
44
44
44
44
44
38
00
00
ENDCHAR

STARTCHAR Cdd
ENCODING 221
SWIDTH 500 0
DWIDTH 7 0
BBX 7 14 0 -2
BITMAP
00
18
20
00
44
44
28
10
10
10
10
10
00
00
ENDCHAR

STARTCHAR Cde
ENCODING 222
SWIDTH 500 0
DWIDTH 7 0
BBX 7 14 0 -2
BITMAP
00
00
70
20
38
24
24
24
38
20
20
70
00
00
ENDCHAR

STARTCHAR Cdf
ENCODING 223
SWIDTH 500 0
DWIDTH 7 0
BBX 7 14 0 -2
BITMAP
00
00
18
24
24
24
28
44
44
44
A4
98
80
00
ENDCHAR

STARTCHAR Ce0
ENCODING 224
SWIDTH 500 0
DWIDTH 7 0
BBX 7 14 0 -2
BITMAP
00
00
30
08
00
38
44
04
3C
44
4C
34
00
00
ENDCHAR

STARTCHAR Ce1
ENCODING 225
SWIDTH 500 0
DWIDTH 7 0
BBX 7 14 0 -2
BITMAP
00
00
18
20
00
38
44
04
3C
44
4C
34
00
00
ENDCHAR

STARTCHAR Ce2
ENCODING 226
SWIDTH 500 0
DWIDTH 7 0
BBX 7 14 0 -2
BITMAP
00
00
10
28
00
38
44
04
3C
44
4C
34
00
00
ENDCHAR

STARTCHAR Ce3
ENCODING 227
SWIDTH 500 0
DWIDTH 7 0
BBX 7 14 0 -2
BITMAP
00
00
34
48
00
38
44
04
3C
44
4C
34
00
00
ENDCHAR

STARTCHAR Ce4
ENCODING 228
SWIDTH 500 0
DWIDTH 7 0
BBX 7 14 0 -2
BITMAP
00
00
28
28
00
38
44
04
3C
44
4C
34
00
00
ENDCHAR

STARTCHAR Ce5
ENCODING 229
SWIDTH 500 0
DWIDTH 7 0
BBX 7 14 0 -2
BITMAP
00
00
10
10
00
38
44
04
3C
44
4C
34
00
00
ENDCHAR

STARTCHAR Ce6
ENCODING 230
SWIDTH 500 0
DWIDTH 7 0
BBX 7 14 0 -2
BITMAP
00
00
00
00
00
68
14
14
7C
90
90
6C
00
00
ENDCHAR

STARTCHAR Ce7
ENCODING 231
SWIDTH 500 0
DWIDTH 7 0
BBX 7 14 0 -2
BITMAP
00
00
00
00
00
38
44
40
40
44
38
04
38
00
ENDCHAR

STARTCHAR Ce8
ENCODING 232
SWIDTH 500 0
DWIDTH 7 0
BBX 7 14 0 -2
BITMAP
00
00
30
08
00
38
44
44
7C
40
40
38
00
00
ENDCHAR

STARTCHAR Ce9
ENCODING 233
SWIDTH 500 0
DWIDTH 7 0
BBX 7 14 0 -2
BITMAP
00
00
18
20
00
38
44
44
7C
40
40
38
00
00
ENDCHAR

STARTCHAR Cea
ENCODING 234
SWIDTH 500 0
DWIDTH 7 0
BBX 7 14 0 -2
BITMAP
00
00
10
28
00
38
44
44
7C
40
40
38
00
00
ENDCHAR

STARTCHAR Ceb
ENCODING 235
SWIDTH 500 0
DWIDTH 7 0
BBX 7 14 0 -2
BITMAP
00
00
28
28
00
38
44
44
7C
40
40
38
00
00
ENDCHAR

STARTCHAR Cec
ENCODING 236
SWIDTH 500 0
DWIDTH 7 0
BBX 7 14 0 -2
BITMAP
00
00
30
08
00
00
10
10
10
10
10
10
00
00
ENDCHAR

STARTCHAR Ced
ENCODING 237
SWIDTH 500 0
DWIDTH 7 0
BBX 7 14 0 -2
BITMAP
00
00
18
20
00
00
10
10
10
10
10
10
00
00
ENDCHAR

STARTCHAR Cee
ENCODING 238
SWIDTH 500 0
DWIDTH 7 0
BBX 7 14 0 -2
BITMAP
00
00
10
28
00
00
10
10
10
10
10
10
00
00
ENDCHAR

STARTCHAR Cef
ENCODING 239
SWIDTH 500 0
DWIDTH 7 0
BBX 7 14 0 -2
BITMAP
00
00
28
28
00
00
10
10
10
10
10
10
00
00
ENDCHAR

STARTCHAR Cf0
ENCODING 240
SWIDTH 500 0
DWIDTH 7 0
BBX 7 14 0 -2
BITMAP
00
00
64
18
30
08
38
44
44
44
44
38
00
00
ENDCHAR

STARTCHAR Cf1
ENCODING 241
SWIDTH 500 0
DWIDTH 7 0
BBX 7 14 0 -2
BITMAP
00
00
34
48
00
58
64
44
44
44
44
44
00
00
ENDCHAR

STARTCHAR Cf2
ENCODING 242
SWIDTH 500 0
DWIDTH 7 0
BBX 7 14 0 -2
BITMAP
00
00
30
08
00
38
44
44
44
44
44
38
00
00
ENDCHAR

STARTCHAR Cf3
ENCODING 243
SWIDTH 500 0
DWIDTH 7 0
BBX 7 14 0 -2
BITMAP
00
00
18
20
00
38
44
44
44
44
44
38
00
00
ENDCHAR

STARTCHAR Cf4
ENCODING 244
SWIDTH 500 0
DWIDTH 7 0
BBX 7 14 0 -2
BITMAP
00
00
10
28
00
38
44
44
44
44
44
38
00
00
ENDCHAR

STARTCHAR Cf5
ENCODING 245
SWIDTH 500 0
DWIDTH 7 0
BBX 7 14 0 -2
BITMAP
00
00
34
48
00
38
44
44
44
44
44
38
00
00
ENDCHAR

STARTCHAR Cf6
ENCODING 246
SWIDTH 500 0
DWIDTH 7 0
BBX 7 14 0 -2
BITMAP
00
00
28
28
00
38
44
44
44
44
44
38
00
00
ENDCHAR

STARTCHAR Cf7
ENCODING 247
SWIDTH 500 0
DWIDTH 7 0
BBX 7 14 0 -2
BITMAP
00
00
00
00
30
30
00
FC
00
30
30
00
00
00
ENDCHAR

STARTCHAR Cf8
ENCODING 248
SWIDTH 500 0
DWIDTH 7 0
BBX 7 14 0 -2
BITMAP
00
00
00
00
00
3A
44
4C
54
64
44
B8
00
00
ENDCHAR

STARTCHAR Cf9
ENCODING 249
SWIDTH 500 0
DWIDTH 7 0
BBX 7 14 0 -2
BITMAP
00
00
30
08
00
44
44
44
44
44
4C
34
00
00
ENDCHAR

STARTCHAR Cfa
ENCODING 250
SWIDTH 500 0
DWIDTH 7 0
BBX 7 14 0 -2
BITMAP
00
00
18
20
00
44
44
44
44
44
4C
34
00
00
ENDCHAR

STARTCHAR Cfb
ENCODING 251
SWIDTH 500 0
DWIDTH 7 0
BBX 7 14 0 -2
BITMAP
00
00
10
28
00
44
44
44
44
44
4C
34
00
00
ENDCHAR

STARTCHAR Cfc
ENCODING 252
SWIDTH 500 0
DWIDTH 7 0
BBX 7 14 0 -2
BITMAP
00
00
28
28
00
44
44
44
44
44
4C
34
00
00
ENDCHAR

STARTCHAR Cfd
ENCODING 253
SWIDTH 500 0
DWIDTH 7 0
BBX 7 14 0 -2
BITMAP
00
00
18
20
00
44
44
44
44
3C
04
44
38
00
ENDCHAR

STARTCHAR Cfe
ENCODING 254
SWIDTH 500 0
DWIDTH 7 0
BBX 7 14 0 -2
BITMAP
00
00
00
00
00
40
78
44
44
78
40
40
40
00
ENDCHAR

STARTCHAR Cff
ENCODING 255
SWIDTH 500 0
DWIDTH 7 0
BBX 7 14 0 -2
BITMAP
00
00
28
28
00
44
44
44
44
3C
04
44
38
00
ENDCHAR
ENDFONT
